<svg width="77" height="82" viewBox="0 0 77 82" fill="none" xmlns="http://www.w3.org/2000/svg">
<path fill-rule="evenodd" clip-rule="evenodd" d="M13.12 37.195L46.87 12.815L50.08 10.495C50.43 10.245 50.63 9.86498 50.63 9.42498C50.63 8.98498 50.43 8.61498 50.08 8.35498L46.87 6.035L39.71 0.864985L38.87 0.255C38.4 -0.085 37.7799 -0.085 37.3199 0.255L36.48 0.864985L0.579956 26.825C0.229956 27.075 0.0300293 27.455 0.0300293 27.895V56.755C0.0300293 57.265 0.29 57.695 0.75 57.925C1.2 58.145 1.72 58.115 2.13 57.815L5.53003 55.355L54.88 19.705C55.35 19.365 55.9701 19.365 56.4301 19.705C59.9801 22.275 63.54 24.835 67.08 27.405C67.79 27.915 67.79 28.975 67.08 29.485L5.51001 73.945L0.550049 77.525C0.200049 77.775 0 78.155 0 78.595V80.405C0 81.125 0.590059 81.715 1.31006 81.715H21.22C21.51 81.715 21.76 81.635 21.99 81.465L29.21 76.245L36.79 70.775L68.5601 47.835C68.9701 47.545 69.4801 47.505 69.9401 47.725C70.3901 47.945 70.66 48.385 70.66 48.895V80.395C70.66 81.115 71.25 81.705 71.97 81.705H74.84C75.57 81.705 76.16 81.115 76.16 80.385V38.165C76.16 37.655 75.9001 37.225 75.4401 36.995C74.9901 36.775 74.4701 36.805 74.0601 37.105L70.66 39.565L60.48 46.915L20.72 75.635C20.18 76.025 19.8 76.255 18.96 76.255H15.74C15.15 76.255 14.66 75.905 14.48 75.345C14.3 74.795 14.48 74.225 14.96 73.875L70.66 33.655L75.62 30.075C75.97 29.825 76.17 29.445 76.17 29.005V27.905C76.17 27.475 75.98 27.095 75.62 26.835L73.1901 25.075C68.9001 21.975 64.6099 18.875 60.3199 15.775L56.42 12.955C55.95 12.615 55.33 12.615 54.87 12.955L50.97 15.775L7.60999 47.085C7.19999 47.375 6.68998 47.415 6.22998 47.195C5.77998 46.975 5.51001 46.535 5.51001 46.025V30.665C5.51001 30.235 5.71006 29.855 6.06006 29.595L37.3199 7.035C37.7899 6.695 38.41 6.695 38.87 7.035L40.73 8.375C41.08 8.625 41.28 9.005 41.28 9.445C41.28 9.885 41.08 10.255 40.73 10.515L11.5601 31.575C11.2101 31.825 11.01 32.205 11.01 32.645V36.155C11.01 36.665 11.27 37.095 11.73 37.325C12.18 37.545 12.7 37.515 13.11 37.215V37.185L13.12 37.195ZM59.67 69.525V71.865C59.69 72.725 59.17 73.205 58.7 73.575L54.98 76.265L50.6901 79.365C50.2201 79.705 50.04 80.285 50.21 80.835C50.39 81.385 50.88 81.745 51.47 81.745H56.33C56.62 81.745 56.87 81.665 57.1 81.495L64.3199 76.275L64.61 76.055C64.96 75.805 65.16 75.425 65.16 74.985V58.805C65.16 58.295 64.9001 57.865 64.4401 57.635C63.9901 57.415 63.4701 57.445 63.0601 57.745L37.42 76.255L33.13 79.355C32.66 79.695 32.48 80.275 32.65 80.825C32.83 81.375 33.32 81.735 33.9 81.735H38.76C39.05 81.735 39.3 81.655 39.53 81.485L46.75 76.265L57.54 68.475C57.95 68.185 58.46 68.145 58.92 68.365C59.37 68.585 59.64 69.025 59.64 69.535L59.67 69.525ZM5.52002 61.285L0.560059 64.865C0.210059 65.115 0.0100098 65.495 0.0100098 65.935V69.445C0.0100098 69.955 0.26998 70.385 0.72998 70.615C1.17998 70.835 1.69999 70.805 2.10999 70.505L5.51001 68.045L58.27 29.945C58.62 29.695 58.8199 29.315 58.8199 28.875C58.8199 28.435 58.62 28.065 58.27 27.805L55.85 26.055C55.38 25.715 54.76 25.715 54.3 26.055L5.52002 61.285Z" fill="#D0D2D3"/>
</svg>
