<svg width="218" height="84" viewBox="0 0 218 84" fill="none" xmlns="http://www.w3.org/2000/svg">
<path d="M94.3401 48.6625H99.5401V50.6425H99.6401C99.9101 50.0025 101.72 48.3225 104.81 48.3225C108.77 48.3225 113.14 51.3125 113.14 57.3925C113.14 63.4725 108.77 66.4625 104.81 66.4625C101.72 66.4625 99.9101 64.7825 99.6401 64.1425H99.5401V72.5025H94.3401V48.6625ZM103.74 61.8225C105.95 61.8225 108.01 60.2125 108.01 57.3825C108.01 54.5525 105.96 52.9525 103.74 52.9525C101.52 52.9525 99.4101 54.5325 99.4101 57.3825C99.4101 60.2325 101.46 61.8225 103.74 61.8225Z" fill="#D0D2D3"/>
<path d="M115.73 57.4225C115.73 51.5125 120.13 48.3225 124.63 48.3225C129.13 48.3225 134.27 51.4125 133.16 59.4025H120.74C121.45 61.2825 123.19 62.2225 125.51 62.2225C127.06 62.2225 128.43 61.8525 129.71 60.8825L132.06 63.3325C130.62 65.1425 128.13 66.4525 124.94 66.4525C120.1 66.4525 115.74 63.1625 115.74 57.4125L115.73 57.4225ZM128.59 55.6825C128.22 53.6725 126.44 52.6925 124.7 52.6925C122.96 52.6925 121.21 53.6025 120.64 55.6825H128.6H128.59Z" fill="#D0D2D3"/>
<path d="M136.75 48.6625H141.96V53.3925C142.53 50.5725 144.21 48.3225 147.37 48.3225C147.77 48.3225 148.17 48.3625 148.61 48.4925V53.4225C148.21 53.3525 147.84 53.3225 147.4 53.3225C143.94 53.3225 141.96 55.6425 141.96 58.9325V66.1225H136.76V48.6625H136.75Z" fill="#D0D2D3"/>
<path d="M162.98 56.2525C162.98 54.0425 161.77 52.9625 160.19 52.9625C158.61 52.9625 157.23 54.0425 157.23 56.2525V66.1325H152.03V48.6725H157.23V50.8225C158.17 49.3825 159.78 48.3425 162.1 48.3425C164.15 48.3425 165.93 49.2125 167.03 51.1025C168.11 49.5225 169.99 48.3425 172.74 48.3425C176.43 48.3425 179.12 50.6925 179.12 56.0625V66.1425H173.92V56.2625C173.92 54.0525 172.71 52.9725 171.13 52.9725C169.45 52.9725 168.17 54.0525 168.17 56.2625V66.1425H162.97V56.2625L162.98 56.2525Z" fill="#D0D2D3"/>
<path d="M200.28 66.1225H195.07V63.9125C194.1 65.3925 192.39 66.4725 189.9 66.4725C186.37 66.4725 183.38 64.2925 183.38 58.9525V48.6725H188.59V58.0425C188.59 60.2225 189.7 61.8425 191.84 61.8425C193.98 61.8425 195.06 60.2325 195.06 58.0425V48.6725H200.27V66.1325L200.28 66.1225Z" fill="#D0D2D3"/>
<path d="M203.55 61.4925L207.68 60.3825C207.95 61.2225 208.55 62.3925 210.2 62.3925C211.14 62.3925 212.01 61.9225 212.01 60.9525C212.01 60.3825 211.68 59.8425 210.53 59.4725L208.18 58.5925C205.29 57.5525 204.05 55.6725 204.05 53.4925C204.05 50.2425 206.97 48.3225 210.4 48.3225C213.83 48.3225 216.08 50.1725 216.68 52.9925L212.62 54.0025C212.18 52.6625 211.31 52.3625 210.61 52.3625C209.6 52.3625 209.1 52.9625 209.1 53.5725C209.1 54.1425 209.43 54.6825 210.61 55.0525L212.79 55.8525C214.67 56.4925 217.16 57.8025 217.16 60.9525C217.16 64.4825 214.17 66.4625 210.28 66.4625C206.76 66.4625 204.11 64.8225 203.56 61.4925H203.55Z" fill="#D0D2D3"/>
<path d="M94.3401 81.8625L95.1401 81.4926C95.3201 82.0526 95.7801 82.4825 96.4601 82.4825C97.0301 82.4825 97.5201 82.1825 97.5201 81.5625C97.5201 81.0225 97.1601 80.7825 96.4801 80.5125L96.0801 80.3525C95.1901 80.0025 94.5601 79.5225 94.5601 78.6325C94.5601 77.6225 95.3901 76.9926 96.4201 76.9926C97.4501 76.9926 98.1001 77.6326 98.3701 78.3026L97.6201 78.7025C97.3701 78.1825 96.9901 77.8925 96.4501 77.8925C95.9101 77.8925 95.5401 78.1625 95.5401 78.6525C95.5401 79.0325 95.7701 79.3125 96.4701 79.6025L96.8901 79.7726C97.9501 80.1926 98.5401 80.6725 98.5401 81.5925C98.5401 82.8025 97.5001 83.4125 96.4601 83.4125C95.4201 83.4125 94.5401 82.7825 94.3201 81.8725L94.3401 81.8625Z" fill="#D0D2D3"/>
<path d="M103 80.2026C103 78.2926 104.46 77.0026 106.18 77.0026C107.9 77.0026 109.36 78.2926 109.36 80.2026C109.36 82.1126 107.89 83.4026 106.18 83.4026C104.47 83.4026 103 82.1126 103 80.2026ZM106.18 82.4526C107.34 82.4526 108.34 81.5626 108.34 80.2026C108.34 78.8426 107.33 77.9526 106.18 77.9526C105.03 77.9526 104.02 78.8426 104.02 80.2026C104.02 81.5626 105.03 82.4526 106.18 82.4526Z" fill="#D0D2D3"/>
<path d="M114.07 77.0925H117.49V77.9926H115.06V79.7625H117.3V80.6025H115.06V83.3125H114.07V77.0925Z" fill="#D0D2D3"/>
<path d="M123.5 78.0125H121.93V77.0925H126.06V78.0125H124.49V83.3125H123.5V78.0125Z" fill="#D0D2D3"/>
<path d="M130.36 77.0925H131.4L132.72 81.5925L134.17 77.0925H134.96L136.4 81.5925L137.73 77.0925H138.77L136.86 83.3125H136.07L134.57 78.7825L133.06 83.3125H132.27L130.36 77.0925Z" fill="#D0D2D3"/>
<path d="M145.26 77.0925L147.69 83.3125H146.62L146.13 82.0425H143.34L142.85 83.3125H141.78L144.21 77.0925H145.25H145.26ZM145.8 81.1225L144.75 78.3425L143.7 81.1225H145.81H145.8Z" fill="#D0D2D3"/>
<path d="M154.25 81.1825H153.13V83.3125H152.14V77.0925H154.24C155.56 77.0925 156.39 77.9325 156.39 79.1725C156.39 80.0725 155.93 80.7425 155.17 81.0325L156.66 83.3225H155.6L154.24 81.1925L154.25 81.1825ZM154.13 80.3125C154.89 80.3125 155.39 79.9625 155.39 79.1625C155.39 78.3625 154.89 78.0025 154.13 78.0025H153.13V80.3026H154.13V80.3125Z" fill="#D0D2D3"/>
<path d="M161.27 77.0925H164.7V78.0125H162.26V79.7426H164.33V80.6425H162.26V82.4025H164.79V83.3225H161.27V77.1025V77.0925Z" fill="#D0D2D3"/>
<path d="M178.91 80.6825H176.1V83.3125H175.11V77.0925H176.1V79.7726H178.91V77.0925H179.9V83.3125H178.91V80.6825Z" fill="#D0D2D3"/>
<path d="M184.61 80.2026C184.61 78.2926 186.07 77.0026 187.79 77.0026C189.51 77.0026 190.97 78.2926 190.97 80.2026C190.97 82.1126 189.5 83.4026 187.79 83.4026C186.08 83.4026 184.61 82.1126 184.61 80.2026ZM187.79 82.4526C188.95 82.4526 189.95 81.5626 189.95 80.2026C189.95 78.8426 188.94 77.9526 187.79 77.9526C186.64 77.9526 185.63 78.8426 185.63 80.2026C185.63 81.5626 186.64 82.4526 187.79 82.4526Z" fill="#D0D2D3"/>
<path d="M195.68 81.0325V77.0825H196.67V81.0325C196.67 82.0725 197.3 82.4625 197.97 82.4625C198.64 82.4625 199.28 82.0825 199.28 81.0325V77.0825H200.27V81.0325C200.27 82.5625 199.26 83.4025 197.98 83.4025C196.7 83.4025 195.69 82.5725 195.69 81.0325H195.68Z" fill="#D0D2D3"/>
<path d="M204.84 81.8625L205.64 81.4926C205.82 82.0526 206.28 82.4825 206.96 82.4825C207.53 82.4825 208.02 82.1825 208.02 81.5625C208.02 81.0225 207.66 80.7825 206.98 80.5125L206.58 80.3525C205.69 80.0025 205.07 79.5225 205.07 78.6325C205.07 77.6225 205.9 76.9926 206.93 76.9926C207.96 76.9926 208.61 77.6326 208.88 78.3026L208.13 78.7025C207.88 78.1825 207.5 77.8925 206.96 77.8925C206.42 77.8925 206.05 78.1625 206.05 78.6525C206.05 79.0225 206.28 79.3125 206.98 79.5925L207.4 79.7625C208.46 80.1825 209.05 80.6625 209.05 81.5826C209.05 82.7926 208.01 83.4025 206.97 83.4025C205.93 83.4025 205.05 82.7725 204.83 81.8625V81.8825L204.84 81.8625Z" fill="#D0D2D3"/>
<path d="M213.63 77.0925H217.06V78.0125H214.62V79.7426H216.69V80.6425H214.62V82.4025H217.15V83.3225H213.63V77.1025V77.0925Z" fill="#D0D2D3"/>
<path fill-rule="evenodd" clip-rule="evenodd" d="M13.38 37.9425L47.83 13.0625L51.1 10.7025C51.46 10.4425 51.66 10.0625 51.66 9.61251C51.66 9.16251 51.46 8.78251 51.1 8.52251L47.83 6.16249L40.52 0.882495L39.66 0.2625C39.18 -0.0875 38.55 -0.0875 38.07 0.2625L37.21 0.882495L0.559998 27.3825C0.199998 27.6425 0 28.0225 0 28.4725V57.9225C0 58.4425 0.26999 58.8825 0.73999 59.1225C1.19999 59.3525 1.73002 59.3125 2.15002 59.0125L5.62 56.5025L56 20.1125C56.48 19.7625 57.11 19.7625 57.59 20.1125C61.21 22.7325 64.84 25.3525 68.47 27.9725C69.2 28.4925 69.2 29.5725 68.47 30.0925L5.63 75.4725L0.570007 79.1225C0.210007 79.3825 0.0100098 79.7625 0.0100098 80.2125V82.0625C0.0100098 82.8025 0.610037 83.4025 1.35004 83.4025H21.67C21.97 83.4025 22.22 83.3225 22.46 83.1425L29.83 77.8125L37.56 72.2225L69.99 48.8025C70.41 48.5025 70.93 48.4625 71.4 48.6925C71.86 48.9225 72.14 49.3725 72.14 49.8925V82.0525C72.14 82.7925 72.74 83.3925 73.48 83.3925H76.41C77.15 83.3925 77.76 82.7825 77.76 82.0425V38.9525C77.76 38.4325 77.49 37.9925 77.02 37.7525C76.56 37.5225 76.03 37.5625 75.61 37.8625L72.14 40.3725L61.75 47.8725L21.17 77.1825C20.62 77.5825 20.23 77.8125 19.37 77.8125H16.08C15.48 77.8125 14.98 77.4525 14.79 76.8825C14.61 76.3225 14.79 75.7325 15.28 75.3825L72.13 34.3225L77.19 30.6725C77.55 30.4125 77.75 30.0325 77.75 29.5825V28.4525C77.75 28.0125 77.56 27.6225 77.19 27.3625L74.71 25.5625C70.33 22.4025 65.95 19.2325 61.57 16.0725L57.59 13.2025C57.11 12.8525 56.48 12.8525 56 13.2025L52.02 16.0725L7.76001 48.0325C7.34001 48.3325 6.82004 48.3725 6.35004 48.1425C5.89004 47.9125 5.60999 47.4625 5.60999 46.9425V31.2725C5.60999 30.8325 5.81004 30.4425 6.17004 30.1825L38.08 7.15248C38.56 6.80248 39.19 6.80248 39.67 7.15248L41.57 8.52251C41.93 8.78251 42.13 9.16251 42.13 9.61251C42.13 10.0625 41.93 10.4425 41.57 10.7025L11.8 32.2025C11.44 32.4625 11.24 32.8425 11.24 33.2925V36.8725C11.24 37.3925 11.51 37.8325 11.98 38.0725C12.44 38.3025 12.97 38.2625 13.39 37.9625V37.9325L13.38 37.9425ZM60.9 70.9325V73.3225C60.92 74.2025 60.39 74.6825 59.91 75.0625L56.12 77.8025L51.74 80.9625C51.26 81.3125 51.07 81.9025 51.25 82.4625C51.43 83.0225 51.94 83.3925 52.54 83.3925H57.5C57.8 83.3925 58.05 83.3125 58.29 83.1325L65.66 77.8025L65.96 77.5825C66.32 77.3225 66.52 76.9425 66.52 76.4925V59.9825C66.52 59.4625 66.25 59.0225 65.78 58.7825C65.32 58.5525 64.79 58.5925 64.37 58.8925L38.2 77.7925L33.82 80.9525C33.34 81.3025 33.15 81.8925 33.33 82.4525C33.51 83.0125 34.02 83.3825 34.61 83.3825H39.57C39.87 83.3825 40.12 83.3025 40.36 83.1225L47.73 77.7925L58.74 69.8425C59.16 69.5425 59.68 69.5025 60.15 69.7325C60.61 69.9625 60.89 70.4125 60.89 70.9325H60.9ZM5.62 62.5225L0.559998 66.1725C0.199998 66.4325 0 66.8125 0 67.2625V70.8425C0 71.3625 0.26999 71.8025 0.73999 72.0425C1.19999 72.2725 1.73002 72.2325 2.15002 71.9325L5.62 69.4225L59.47 30.5325C59.83 30.2725 60.03 29.8925 60.03 29.4425C60.03 28.9925 59.83 28.6125 59.47 28.3525L57 26.5625C56.52 26.2125 55.89 26.2125 55.41 26.5625L5.62 62.5225Z" fill="#D0D2D3"/>
</svg>
