<?xml version="1.0" encoding="UTF-8"?>
<svg id="Layer_1" xmlns="http://www.w3.org/2000/svg" version="1.1" viewBox="0 0 290.38 111.54">
  <!-- Generator: Adobe Illustrator 30.1.0, SVG Export Plug-In . SVG Version: 2.1.1 Build 136)  -->
  <defs>
    <style>
      .st0 {
        fill-rule: evenodd;
      }

      .st0, .st1 {
        fill: #fff;
      }
    </style>
  </defs>
  <g>
    <path class="st1" d="M126.15,65.08h6.96v2.65h.14c.36-.85,2.78-3.1,6.92-3.1,5.3,0,11.14,3.99,11.14,12.12s-5.84,12.12-11.14,12.12c-4.13,0-6.56-2.25-6.92-3.1h-.14v11.18h-6.96v-31.89h0v.02ZM138.72,82.68c2.96,0,5.7-2.16,5.7-5.93s-2.74-5.92-5.7-5.92-5.79,2.11-5.79,5.92,2.74,5.93,5.79,5.93Z"/>
    <path class="st1" d="M154.76,76.8c0-7.9,5.88-12.17,11.9-12.17s12.89,4.13,11.41,14.81h-16.61c.94,2.51,3.28,3.78,6.38,3.78,2.07,0,3.9-.5,5.61-1.8l3.14,3.28c-1.93,2.42-5.26,4.17-9.52,4.17-6.47,0-12.3-4.4-12.3-12.08h0ZM171.94,74.47c-.5-2.69-2.87-3.99-5.21-3.99s-4.67,1.21-5.44,3.99h10.65Z"/>
    <path class="st1" d="M182.86,65.08h6.97v6.33c.77-3.78,3.01-6.78,7.23-6.78.54,0,1.07.05,1.66.23v6.6c-.54-.09-1.03-.13-1.62-.13-4.63,0-7.27,3.1-7.27,7.5v9.61h-6.96v-23.35h0Z"/>
    <path class="st1" d="M217.93,75.23c0-2.96-1.62-4.4-3.73-4.4s-3.95,1.44-3.95,4.4v13.21h-6.96v-23.35h6.96v2.87c1.26-1.93,3.41-3.32,6.51-3.32,2.74,0,5.12,1.16,6.6,3.69,1.44-2.11,3.95-3.69,7.63-3.69,4.94,0,8.54,3.14,8.54,10.32v13.47h-6.96v-13.21c0-2.96-1.62-4.4-3.73-4.4-2.25,0-3.95,1.44-3.95,4.4v13.21h-6.96v-13.21h0Z"/>
    <path class="st1" d="M267.82,88.43h-6.97v-2.96c-1.3,1.98-3.59,3.42-6.92,3.42-4.72,0-8.71-2.92-8.71-10.06v-13.74h6.97v12.53c0,2.92,1.48,5.08,4.35,5.08s4.31-2.16,4.31-5.08v-12.53h6.97v23.35h0Z"/>
    <path class="st1" d="M272.18,82.24l5.52-1.48c.36,1.12,1.16,2.69,3.37,2.69,1.26,0,2.42-.63,2.42-1.93,0-.77-.45-1.48-1.98-1.98l-3.14-1.17c-3.87-1.39-5.52-3.9-5.52-6.83,0-4.35,3.9-6.92,8.49-6.92s7.59,2.47,8.4,6.24l-5.44,1.35c-.59-1.8-1.75-2.2-2.69-2.2-1.35,0-2.02.8-2.02,1.62,0,.77.45,1.48,2.02,1.98l2.92,1.07c2.51.85,5.84,2.6,5.84,6.83,0,4.72-3.99,7.36-9.2,7.36-4.71,0-8.26-2.2-8.98-6.65h0v.02Z"/>
  </g>
  <g>
    <path class="st1" d="M126.15,109.48l1.07-.5c.24.75.86,1.32,1.77,1.32.76,0,1.42-.4,1.42-1.23,0-.72-.49-1.05-1.38-1.41l-.54-.21c-1.19-.46-2.03-1.11-2.03-2.3,0-1.35,1.11-2.2,2.48-2.2s2.25.86,2.61,1.75l-1,.54c-.34-.7-.85-1.09-1.56-1.09s-1.22.36-1.22,1.01c0,.51.31.89,1.25,1.27l.56.22c1.42.56,2.21,1.21,2.21,2.43,0,1.62-1.38,2.43-2.78,2.43s-2.57-.85-2.86-2.06h0v.03Z"/>
    <path class="st1" d="M137.72,107.26c0-2.56,1.96-4.28,4.25-4.28s4.25,1.72,4.25,4.28-1.97,4.28-4.25,4.28-4.25-1.72-4.25-4.28h0ZM141.98,110.27c1.55,0,2.89-1.19,2.89-3.01s-1.35-3.01-2.89-3.01-2.89,1.19-2.89,3.01,1.35,3.01,2.89,3.01Z"/>
    <path class="st1" d="M152.53,103.09h4.58v1.21h-3.26v2.37h2.99v1.12h-2.99v3.62h-1.32v-8.32Z"/>
    <path class="st1" d="M165.14,104.33h-2.1v-1.23h5.53v1.23h-2.1v7.09h-1.32v-7.09h0,0Z"/>
    <path class="st1" d="M174.31,103.09h1.4l1.77,6.01,1.93-6.01h1.06l1.92,6.01,1.78-6.01h1.4l-2.56,8.32h-1.06l-2.01-6.06-2.02,6.06h-1.06l-2.56-8.32h.01Z"/>
    <path class="st1" d="M194.23,103.09l3.26,8.32h-1.43l-.65-1.7h-3.73l-.65,1.7h-1.43l3.24-8.32h1.4-.01ZM194.96,108.48l-1.41-3.72-1.41,3.72h2.82Z"/>
    <path class="st1" d="M206.26,108.57h-1.5v2.84h-1.32v-8.32h2.81c1.76,0,2.88,1.12,2.88,2.78,0,1.21-.61,2.1-1.63,2.48l2,3.06h-1.42l-1.82-2.84h0,0ZM206.1,107.41c1.02,0,1.68-.47,1.68-1.53s-.67-1.55-1.68-1.55h-1.33v3.08h1.33Z"/>
    <path class="st1" d="M215.65,103.09h4.59v1.23h-3.27v2.31h2.77v1.2h-2.77v2.36h3.38v1.23h-4.7v-8.32h0Z"/>
    <path class="st1" d="M239.24,107.9h-3.75v3.52h-1.32v-8.32h1.32v3.58h3.75v-3.58h1.32v8.32h-1.32v-3.52Z"/>
    <path class="st1" d="M246.86,107.26c0-2.56,1.96-4.28,4.25-4.28s4.25,1.72,4.25,4.28-1.97,4.28-4.25,4.28-4.25-1.72-4.25-4.28ZM251.12,110.27c1.55,0,2.89-1.19,2.89-3.01s-1.35-3.01-2.89-3.01-2.89,1.19-2.89,3.01,1.35,3.01,2.89,3.01Z"/>
    <path class="st1" d="M261.66,108.37v-5.28h1.32v5.28c0,1.4.85,1.91,1.73,1.91s1.75-.51,1.75-1.91v-5.28h1.32v5.28c0,2.05-1.35,3.17-3.07,3.17s-3.06-1.11-3.06-3.17h0Z"/>
    <path class="st1" d="M273.91,109.48l1.07-.5c.24.75.86,1.32,1.77,1.32.76,0,1.42-.4,1.42-1.23,0-.72-.49-1.05-1.38-1.41l-.54-.21c-1.19-.47-2.02-1.11-2.02-2.3,0-1.35,1.11-2.2,2.48-2.2s2.25.86,2.61,1.75l-1,.54c-.34-.7-.85-1.09-1.56-1.09s-1.22.36-1.22,1.01c0,.5.31.89,1.25,1.26l.56.22c1.42.56,2.21,1.21,2.21,2.43,0,1.62-1.38,2.43-2.78,2.43s-2.57-.85-2.86-2.06h0v.04Z"/>
    <path class="st1" d="M285.67,103.09h4.59v1.23h-3.27v2.31h2.77v1.2h-2.77v2.36h3.38v1.23h-4.7v-8.32h0Z"/>
  </g>
  <path class="st0" d="M17.88,50.74L63.95,17.47l4.38-3.16c.48-.35.75-.85.75-1.45s-.27-1.11-.75-1.45l-4.38-3.16-9.78-7.06-1.15-.83c-.64-.47-1.48-.47-2.12,0l-1.15.83L.75,36.61c-.48.35-.75.86-.75,1.46v39.39c0,.69.36,1.27.99,1.59.61.31,1.32.25,1.88-.15l4.64-3.36L74.88,26.89c.64-.47,1.48-.47,2.12,0,4.84,3.51,9.7,7,14.54,10.51h0c.97.7.97,2.14,0,2.84L7.51,100.92l-6.76,4.88c-.48.35-.75.85-.75,1.45v2.47c0,.99.8,1.79,1.79,1.79h27.18c.4,0,.73-.11,1.05-.35l9.86-7.12,10.34-7.47,43.36-31.31c.56-.4,1.25-.45,1.88-.15.61.31.99.91.99,1.6v43c0,.99.8,1.79,1.79,1.79h3.92c.99,0,1.8-.81,1.8-1.8v-57.62c0-.69-.36-1.28-.99-1.6-.61-.31-1.32-.25-1.88.15l-4.64,3.36-13.89,10.03-54.27,39.19c-.73.53-1.25.85-2.4.85h-4.4c-.8,0-1.47-.48-1.72-1.24-.24-.75,0-1.53.65-2l76.02-54.9,6.76-4.88c.48-.35.75-.85.75-1.45v-1.51c0-.59-.25-1.11-.75-1.45l-3.32-2.4c-5.86-4.23-11.71-8.46-17.57-12.69l-5.32-3.84c-.64-.47-1.48-.47-2.12,0l-5.32,3.84L10.37,64.26c-.56.4-1.25.45-1.88.15-.61-.31-.99-.91-.99-1.6v-20.96c0-.59.27-1.11.75-1.45L50.91,9.6c.64-.47,1.48-.47,2.12,0l2.53,1.83c.48.35.75.85.75,1.45s-.27,1.11-.75,1.45L15.76,43.08c-.48.35-.75.85-.75,1.45v4.79c0,.69.36,1.28.99,1.6.61.31,1.32.25,1.88-.15h0v-.04h0ZM81.43,94.86v3.19c.03,1.17-.68,1.82-1.32,2.33l-5.07,3.67-5.86,4.23c-.64.47-.89,1.25-.65,2s.92,1.24,1.72,1.24h6.63c.4,0,.73-.11,1.05-.35l9.86-7.12.4-.29c.48-.35.75-.85.75-1.45v-22.08c0-.69-.36-1.28-.99-1.6-.61-.31-1.32-.25-1.88.15l-35,25.27-5.86,4.23c-.64.47-.89,1.25-.65,2,.24.75.92,1.24,1.71,1.24h6.63c.4,0,.73-.11,1.05-.35l9.86-7.12,14.73-10.63c.56-.4,1.25-.45,1.88-.15.61.31.99.91.99,1.6h.02ZM7.51,83.62l-6.76,4.88c-.48.35-.75.85-.75,1.45v4.79c0,.69.36,1.28.99,1.6.61.31,1.32.25,1.88-.15l4.64-3.36,72.01-52.01c.48-.35.75-.85.75-1.45s-.27-1.11-.75-1.45l-3.31-2.39c-.64-.47-1.48-.47-2.12,0L7.51,83.62Z"/>
</svg>