<?xml version="1.0" encoding="UTF-8"?>
<svg id="Layer_1" xmlns="http://www.w3.org/2000/svg" version="1.1" viewBox="0 0 103.96 111.51">
  <!-- Generator: Adobe Illustrator 30.1.0, SVG Export Plug-In . SVG Version: 2.1.1 Build 136)  -->
  <defs>
    <style>
      .st0 {
        fill: #fff;
        fill-rule: evenodd;
      }
    </style>
  </defs>
  <path class="st0" d="M17.88,50.73L63.95,17.46l4.38-3.16c.48-.35.75-.85.75-1.45s-.27-1.11-.75-1.45l-4.38-3.16-9.78-7.06-1.15-.83c-.64-.47-1.48-.47-2.12,0l-1.15.83L.75,36.6c-.48.35-.75.86-.75,1.46v39.39c0,.69.36,1.27.99,1.59.61.31,1.32.25,1.88-.15l4.64-3.36L74.88,26.88c.64-.47,1.48-.47,2.12,0,4.84,3.51,9.7,7,14.54,10.51h0c.97.7.97,2.14,0,2.84L7.51,100.91l-6.76,4.88c-.48.35-.75.85-.75,1.45v2.47c0,.99.8,1.79,1.79,1.79h27.18c.4,0,.73-.11,1.05-.35l9.86-7.12,10.34-7.47,43.36-31.31c.56-.4,1.25-.45,1.88-.15.61.31.99.91.99,1.6v43c0,.99.8,1.79,1.79,1.79h3.92c.99,0,1.8-.81,1.8-1.8v-57.62c0-.69-.36-1.28-.99-1.6-.61-.31-1.32-.25-1.88.15l-4.64,3.36-13.89,10.03-54.27,39.19c-.73.53-1.25.85-2.4.85h-4.4c-.8,0-1.47-.48-1.72-1.24-.24-.75,0-1.53.65-2l76.02-54.9,6.76-4.88c.48-.35.75-.85.75-1.45v-1.51c0-.59-.25-1.11-.75-1.45l-3.32-2.4c-5.86-4.23-11.71-8.46-17.57-12.69l-5.32-3.84c-.64-.47-1.48-.47-2.12,0l-5.32,3.84L10.37,64.25c-.56.4-1.25.45-1.88.15-.61-.31-.99-.91-.99-1.6v-20.96c0-.59.27-1.11.75-1.45L50.91,9.59c.64-.47,1.48-.47,2.12,0l2.53,1.83c.48.35.75.85.75,1.45s-.27,1.11-.75,1.45L15.76,43.07c-.48.35-.75.85-.75,1.45v4.79c0,.69.36,1.28.99,1.6.61.31,1.32.25,1.88-.15h0v-.04h0ZM81.43,94.85v3.19c.03,1.17-.68,1.82-1.32,2.33l-5.07,3.67-5.86,4.23c-.64.47-.89,1.25-.65,2s.92,1.24,1.72,1.24h6.63c.4,0,.73-.11,1.05-.35l9.86-7.12.4-.29c.48-.35.75-.85.75-1.45v-22.08c0-.69-.36-1.28-.99-1.6-.61-.31-1.32-.25-1.88.15l-35,25.27-5.86,4.23c-.64.47-.89,1.25-.65,2,.24.75.92,1.24,1.71,1.24h6.63c.4,0,.73-.11,1.05-.35l9.86-7.12,14.73-10.63c.56-.4,1.25-.45,1.88-.15.61.31.99.91.99,1.6h.02ZM7.51,83.61l-6.76,4.88c-.48.35-.75.85-.75,1.45v4.79c0,.69.36,1.28.99,1.6.61.31,1.32.25,1.88-.15l4.64-3.36,72.01-52.01c.48-.35.75-.85.75-1.45s-.27-1.11-.75-1.45l-3.31-2.39c-.64-.47-1.48-.47-2.12,0L7.51,83.61Z"/>
</svg>